# xmcd CD database file
#
# Track frame offsets:
#	150
#	8857
#	21502
#	34737
#	46722
#	58255
#	72012
#	83440
#	99507
#	111207
#	124007
#	133760
#	145885
#	159902
#
# Disc length: 2300 seconds
#
# Revision: 1
# Processed by: cddbd v1.5.1PL2 Copyright (c) Steve Scherf et al.
# Submitted via: CDex 1.51
#
DISCID=b308fa0e
DTITLE=Gilberto e Gilmar - Bis
DYEAR=1900
DGENRE=sertanejo
TTITLE0=quem ama não vê defeito
TTITLE1=chora coração
TTITLE2=só mais uma vez
TTITLE3=dama da noite
TTITLE4=cheiro de mulher
TTITLE5=o último pôr-do-sol
TTITLE6=assino com x
TTITLE7=parede do destino
TTITLE8=fome de amor
TTITLE9=em poucas palavras
TTITLE10=amor proibido
TTITLE11=amor perigoso
TTITLE12=vem me ver
TTITLE13=música da saudade
EXTD=
EXTT0=
EXTT1=
EXTT2=
EXTT3=
EXTT4=
EXTT5=
EXTT6=
EXTT7=
EXTT8=
EXTT9=
EXTT10=
EXTT11=
EXTT12=
EXTT13=
PLAYORDER=
